<svg width="30" height="30" viewBox="0 0 30 30" fill="none" xmlns="http://www.w3.org/2000/svg">
<g clip-path="url(#clip0_781_297)">
<path d="M12.498 17.502V0H3.75C1.68164 0 0 1.68164 0 3.75V26.25C0 28.3184 1.68164 30 3.75 30H26.25C28.3184 30 30 28.3184 30 26.25V17.502H12.498ZM27.498 26.25C27.498 26.9414 26.9355 27.498 26.25 27.498H3.75C3.05859 27.498 2.50195 26.9355 2.50195 26.25V3.75C2.50195 3.05859 3.06445 2.50195 3.75 2.50195H10.002V7.5H6.25195V10.002H10.002V12.5039H6.25195V15H10.002V17.502H6.25195V20.0039H10.002V23.7539H12.5039V20.0039H15V23.7539H17.502V20.0039H20.0039V23.7539H22.5V20.0039H27.498V26.25Z" fill="#00AEBC"/>
</g>
<defs>
<clipPath id="clip0_781_297">
<rect width="30" height="30" fill="white"/>
</clipPath>
</defs>
</svg>
