<svg width="30" height="30" viewBox="0 0 30 30" fill="none" xmlns="http://www.w3.org/2000/svg">
<g clip-path="url(#clip0_781_300)">
<path d="M28.5 19.5L25.375 17C24 15.875 22.125 15.875 20.75 17L17.625 19.5C16.75 20.25 16.25 21.25 16.25 22.5V26.25C16.25 28.375 17.875 30 20 30H26.25C28.375 30 30 28.375 30 26.25V22.5C30 21.25 29.5 20.25 28.5 19.5ZM27.5 26.25C27.5 27 27 27.5 26.25 27.5H20C19.25 27.5 18.75 27 18.75 26.25V22.5C18.75 22.125 18.875 21.75 19.25 21.5L22.375 19C22.625 18.875 22.875 18.75 23.125 18.75C23.375 18.75 23.625 18.875 23.875 19L27 21.5C27.25 21.75 27.5 22.125 27.5 22.5V26.25ZM23.75 5H8.75V3.75C8.75 1.625 7.125 0 5 0H4.375C2 0 0 2 0 4.375V25.625C0 28 2 30 4.375 30H12.5C13.25 30 13.75 29.5 13.75 28.75C13.75 28 13.25 27.5 12.5 27.5H4.375C3.375 27.5 2.5 26.625 2.5 25.625C2.5 24.625 3.375 23.75 4.375 23.75H5C7.125 23.75 8.75 22.125 8.75 20V7.5H23.75C25.875 7.5 27.5 9.125 27.5 11.25V13.75C27.5 14.5 28 15 28.75 15C29.5 15 30 14.5 30 13.75V11.25C30 7.75 27.25 5 23.75 5ZM6.25 20C6.25 20.75 5.75 21.25 5 21.25H4.375C3.75 21.25 3.125 21.375 2.5 21.625V4.375C2.5 3.375 3.375 2.5 4.375 2.5H5C5.75 2.5 6.25 3 6.25 3.75V20ZM13.75 11.25V23.75C13.75 24.5 13.25 25 12.5 25C11.75 25 11.25 24.5 11.25 23.75V11.25C11.25 10.5 11.75 10 12.5 10C13.25 10 13.75 10.5 13.75 11.25ZM17.5 11.25C17.5 10.5 18 10 18.75 10H22.5C24.125 10 25 11.25 25 12.5C25 13.25 24.5 13.75 23.75 13.75C23 13.75 22.5 13.25 22.5 12.5H18.75C18 12.5 17.5 12 17.5 11.25ZM23.75 25.625H22.5C21.75 25.625 21.25 25.125 21.25 24.375V23.125C21.25 22.375 21.75 21.875 22.5 21.875H23.75C24.5 21.875 25 22.375 25 23.125V24.375C25 25.125 24.5 25.625 23.75 25.625Z" fill="#00AEBC"/>
</g>
<defs>
<clipPath id="clip0_781_300">
<rect width="30" height="30" fill="white"/>
</clipPath>
</defs>
</svg>
