<svg width="30" height="30" viewBox="0 0 30 30" fill="none" xmlns="http://www.w3.org/2000/svg">
<g clip-path="url(#clip0_781_303)">
<path d="M8.75 28.75C8.75 29.5 8.25 30 7.5 30H6.25C2.75 30 0 27.25 0 23.75V12.125C0 10 1 8.125 2.75 7L11.5 1.125C13.625 -0.25 16.375 -0.25 18.5 1.125L27.25 7C27.625 7.25 28 7.625 28.375 7.875C28.875 8.375 28.875 9.125 28.25 9.625C27.75 10.125 27 10.125 26.5 9.5C26.25 9.25 26.125 9.125 25.875 9L17.125 3.125C15.875 2.25 14.25 2.25 12.875 3.125L4.125 9C3.125 9.75 2.5 10.875 2.5 12.125V23.75C2.5 25.875 4.125 27.5 6.25 27.5H7.5C8.25 27.5 8.75 28.125 8.75 28.75ZM22.375 16.25C21.625 17 21.625 18.125 22.375 18.875C23.125 19.625 24.25 19.625 25 18.875C25.75 18.125 25.75 17 25 16.25C24.25 15.5 23.125 15.5 22.375 16.25ZM28 23C26.5 24.5 24.5 25.125 22.5 25L18.625 28.875C17.875 29.625 17 30 16 30H13.75C12.375 30 11.25 28.875 11.25 27.5V25C11.25 24.5 11.5 24 11.75 23.625C12.125 23.25 12.625 23.125 13.125 23.125H13.75V22.5C13.75 21.5 14.625 20.625 15.625 20.625H16.625V20.125C15.75 17.25 16.75 14.125 19.25 12.5C21.5 10.875 24.5 10.875 26.875 12.375C30.5 14.625 31.125 20 28 23ZM27.5 17.75C27.375 16.375 26.625 15.25 25.5 14.5C24 13.5 22.125 13.625 20.75 14.625C19.125 15.75 18.5 17.75 19.125 19.625C19.125 19.75 19.25 19.875 19.25 20V21.875C19.25 22.625 18.75 23.125 18 23.125H16.25V24.375C16.25 25 15.625 25.625 15 25.625H13.75V27.5H15.875C16.25 27.5 16.5 27.375 16.75 27.125L21.125 22.75C21.375 22.5 21.875 22.375 22.25 22.375C23.625 22.625 25.125 22.25 26.25 21.125C27.125 20.25 27.625 19 27.5 17.75Z" fill="#00AEBC"/>
</g>
<defs>
<clipPath id="clip0_781_303">
<rect width="30" height="30" fill="white"/>
</clipPath>
</defs>
</svg>
