<svg width="18" height="18" viewBox="0 0 18 18" fill="none" xmlns="http://www.w3.org/2000/svg">
<path d="M16.0714 0H1.92857C0.863839 0 0 0.863839 0 1.92857V16.0714C0 17.1362 0.863839 18 1.92857 18H7.44509V11.8808H4.91384V9H7.44509V6.80625C7.44509 4.30714 8.9317 2.92902 11.2098 2.92902C12.2987 2.92902 13.4397 3.12187 13.4397 3.12187V5.57277H12.1821C10.9446 5.57277 10.5589 6.34018 10.5589 7.12768V9H13.3232L12.8813 11.8808H10.5589V18H16.0714C17.1362 18 18 17.1362 18 16.0714V1.92857C18 0.863839 17.1362 0 16.0714 0Z" fill="#A7AABD"/>
</svg>
