<svg width="16" height="18" viewBox="0 0 16 18" fill="none" xmlns="http://www.w3.org/2000/svg">
<g clip-path="url(#clip0_722_236)">
<path d="M13.391 3.41367C11.918 1.93711 9.95625 1.125 7.87148 1.125C3.56836 1.125 0.0667969 4.62656 0.0667969 8.92969C0.0667969 10.3043 0.425391 11.6473 1.10742 12.832L0 16.875L4.13789 15.7887C5.27695 16.4109 6.56016 16.7379 7.86797 16.7379H7.87148C12.1711 16.7379 15.75 13.2363 15.75 8.9332C15.75 6.84844 14.8641 4.89023 13.391 3.41367ZM7.87148 15.423C6.7043 15.423 5.56172 15.1102 4.5668 14.5195L4.33125 14.3789L1.87734 15.0223L2.53125 12.6281L2.37656 12.382C1.72617 11.3484 1.38516 10.1566 1.38516 8.92969C1.38516 5.3543 4.29609 2.44336 7.875 2.44336C9.6082 2.44336 11.2359 3.11836 12.4594 4.34531C13.6828 5.57227 14.4352 7.2 14.4316 8.9332C14.4316 12.5121 11.4469 15.423 7.87148 15.423ZM11.4293 10.5645C11.2359 10.466 10.2762 9.99492 10.0969 9.93164C9.91758 9.86484 9.7875 9.8332 9.65742 10.0301C9.52734 10.227 9.15469 10.6629 9.03867 10.7965C8.92617 10.9266 8.81016 10.9441 8.6168 10.8457C7.4707 10.2727 6.71836 9.82266 5.9625 8.52539C5.76211 8.18086 6.16289 8.20547 6.53555 7.46016C6.59883 7.33008 6.56719 7.21758 6.51797 7.11914C6.46875 7.0207 6.07852 6.06094 5.9168 5.6707C5.75859 5.29102 5.59688 5.34375 5.47734 5.33672C5.36484 5.32969 5.23477 5.32969 5.10469 5.32969C4.97461 5.32969 4.76367 5.37891 4.58437 5.57227C4.40508 5.76914 3.90234 6.24023 3.90234 7.2C3.90234 8.15977 4.60195 9.08789 4.69688 9.21797C4.79531 9.34805 6.07148 11.3168 8.02969 12.1641C9.26719 12.6984 9.75234 12.7441 10.3711 12.6527C10.7473 12.5965 11.5242 12.1816 11.6859 11.7246C11.8477 11.2676 11.8477 10.8773 11.7984 10.7965C11.7527 10.7086 11.6227 10.6594 11.4293 10.5645Z" fill="#00AEBC"/>
</g>
<defs>
<clipPath id="clip0_722_236">
<rect width="15.75" height="18" fill="white"/>
</clipPath>
</defs>
</svg>
