<svg width="13" height="18" viewBox="0 0 13 18" fill="none" xmlns="http://www.w3.org/2000/svg">
<g clip-path="url(#clip0_722_223)">
<path d="M0 2.25C0 1.00898 1.00416 0 2.23923 0H10.0766C11.3116 0 12.3158 1.00898 12.3158 2.25V15.75C12.3158 16.991 11.3116 18 10.0766 18H2.23923C1.00416 18 0 16.991 0 15.75V2.25ZM7.27751 15.75C7.27751 15.1277 6.77718 14.625 6.1579 14.625C5.53861 14.625 5.03828 15.1277 5.03828 15.75C5.03828 16.3723 5.53861 16.875 6.1579 16.875C6.77718 16.875 7.27751 16.3723 7.27751 15.75ZM10.0766 2.25H2.23923V13.5H10.0766V2.25Z" fill="#00AEBC"/>
</g>
<defs>
<clipPath id="clip0_722_223">
<rect width="12.3158" height="18" fill="white"/>
</clipPath>
</defs>
</svg>
