<svg width="21" height="18" viewBox="0 0 21 18" fill="none" xmlns="http://www.w3.org/2000/svg">
<g clip-path="url(#clip0_722_219)">
<path d="M20.2355 8.98067C20.2355 9.61336 19.7083 10.109 19.1107 10.109H17.9859L18.0105 15.7399C18.0105 15.8348 18.0035 15.9297 17.993 16.0246V16.594C17.993 17.3708 17.3638 18 16.587 18H16.0246C15.9859 18 15.9473 18 15.9086 17.9965C15.8594 18 15.8102 18 15.761 18L14.6186 17.9965H13.775C12.9982 17.9965 12.3691 17.3673 12.3691 16.5905V15.7469V13.4974C12.3691 12.8752 11.8664 12.3726 11.2443 12.3726H8.99473C8.37258 12.3726 7.86995 12.8752 7.86995 13.4974V15.7469V16.5905C7.86995 17.3673 7.24077 17.9965 6.46397 17.9965H5.62039H4.49912C4.4464 17.9965 4.39367 17.993 4.34095 17.9895C4.29877 17.993 4.25659 17.9965 4.21441 17.9965H3.65202C2.87522 17.9965 2.24605 17.3673 2.24605 16.5905V12.6538C2.24605 12.6221 2.24605 12.587 2.24956 12.5554V10.1054H1.12478C0.492091 10.1054 0 9.61336 0 8.97715C0 8.66081 0.105448 8.37961 0.351494 8.13357L9.36028 0.281195C9.60633 0.0351494 9.88752 0 10.1336 0C10.3796 0 10.6608 0.0702988 10.8717 0.246046L19.8489 8.13708C20.1301 8.38313 20.2706 8.66432 20.2355 8.98067Z" fill="#00AEBC"/>
</g>
<defs>
<clipPath id="clip0_722_219">
<rect width="20.2425" height="18" fill="white"/>
</clipPath>
</defs>
</svg>
