<svg width="23" height="30" viewBox="0 0 23 30" fill="none" xmlns="http://www.w3.org/2000/svg">
<g clip-path="url(#clip0_612_46)">
<path d="M17.017 9.06625V6.39748C17.017 5.84858 17.4703 5.39432 18.018 5.39432C18.5657 5.39432 19.019 5.84858 19.019 6.39748V9.06625H22.7586V4.33438C22.7586 1.94953 20.8133 0 18.4524 0H4.3062C1.94534 0 0 1.94953 0 4.31546V9.04732H17.017V9.06625Z" fill="#00AEBC"/>
<path d="M19.019 11.0726V21.4259C19.019 21.9748 18.5657 22.429 18.018 22.429C17.4703 22.429 17.017 21.9748 17.017 21.4259V11.0726H0V25.6846C0 28.0505 1.94534 30 4.3062 30H18.4524C20.8133 30 22.7586 28.0505 22.7586 25.6846V11.0726H19.019Z" fill="#00AEBC"/>
</g>
<defs>
<clipPath id="clip0_612_46">
<rect width="22.7586" height="30" fill="white"/>
</clipPath>
</defs>
</svg>
