<svg width="30" height="30" viewBox="0 0 30 30" fill="none" xmlns="http://www.w3.org/2000/svg">
<g clip-path="url(#clip0_321_537)">
<path d="M28.75 15C28 15 27.5 15.5 27.5 16.25V20H19.875L12.5 12.625V2.5H13.75C14.5 2.5 15 2 15 1.25C15 0.5 14.5 0 13.75 0H6.25C2.75 0 0 2.75 0 6.25V23.75C0 27.25 2.75 30 6.25 30H23.75C27.25 30 30 27.25 30 23.75V16.25C30 15.5 29.5 15 28.75 15ZM6.25 2.5H10V12.375L2.5 16.375V6.25C2.5 4.125 4.125 2.5 6.25 2.5ZM2.5 23.75V19.25L11 14.75L17.75 21.5L13.125 27.5H6.25C4.125 27.5 2.5 25.875 2.5 23.75ZM23.75 27.5H16.25L20 22.5H27.5V23.75C27.5 25.875 25.875 27.5 23.75 27.5ZM20.625 14C21.375 14.75 22.25 15 23.125 15C24 15 25 14.625 25.625 14L27.875 11.75C29.125 10.5 29.875 8.75 29.875 6.875C29.875 5 29.125 3.25 27.875 2C26.625 0.75 24.875 0 23 0C21.125 0 19.375 0.75 18.125 2C16.875 3.25 16.125 5 16.125 6.875C16.125 8.75 16.875 10.5 18.125 11.75L20.625 14ZM20 3.75C20.875 2.875 21.875 2.5 23.125 2.5C24.375 2.5 25.375 3 26.25 3.75C27.125 4.5 27.5 5.625 27.5 6.875C27.5 8.125 27 9.125 26.25 10L24 12.25C23.5 12.75 22.875 12.75 22.375 12.25L20 10C19.125 9.125 18.75 8.125 18.75 6.875C18.75 5.625 19.25 4.625 20 3.75ZM21.25 6.875C21.25 5.875 22.125 5 23.125 5C24.125 5 25 5.875 25 6.875C25 7.875 24.125 8.75 23.125 8.75C22.125 8.75 21.25 7.875 21.25 6.875Z" fill="#00AEBC"/>
</g>
<defs>
<clipPath id="clip0_321_537">
<rect width="30" height="30" fill="white"/>
</clipPath>
</defs>
</svg>
