<svg width="18" height="18" viewBox="0 0 18 18" fill="none" xmlns="http://www.w3.org/2000/svg">
<path d="M9 6.85848C7.81473 6.85848 6.85848 7.81875 6.85848 9.00402C6.85848 10.1893 7.81875 11.1455 9.00402 11.1455C10.1893 11.1455 11.1455 10.1853 11.1455 9.00402C11.1415 7.81473 10.1853 6.85848 9 6.85848ZM14.0103 5.21116C13.7893 4.65268 13.3473 4.21071 12.7888 3.98973C11.9451 3.65625 9.93616 3.73259 9 3.73259C8.06384 3.73259 6.05491 3.65625 5.21116 3.98973C4.65268 4.21071 4.21071 4.65268 3.98973 5.21116C3.65625 6.05491 3.73259 8.06786 3.73259 9C3.73259 9.93214 3.66027 11.9451 3.99375 12.7888C4.21473 13.3473 4.6567 13.7893 5.21518 14.0103C6.05893 14.3438 8.06786 14.2674 9.00402 14.2674C9.94018 14.2674 11.9451 14.3438 12.7929 14.0103C13.3513 13.7893 13.7933 13.3473 14.0143 12.7888C14.3518 11.9451 14.2714 9.93214 14.2714 9C14.2714 8.06786 14.3478 6.05491 14.0103 5.21116ZM9 12.2946C7.17991 12.2946 5.70536 10.8201 5.70536 9C5.70536 7.17991 7.17991 5.70536 9 5.70536C10.8201 5.70536 12.2946 7.17991 12.2946 9C12.2987 10.8161 10.8241 12.2906 9.00804 12.2946C9.00402 12.2946 9.00402 12.2946 9 12.2946ZM12.4312 6.33616C12.0054 6.33616 11.6638 5.99063 11.6638 5.56875C11.6638 5.14688 12.0094 4.80134 12.4312 4.80134C12.8571 4.80134 13.1987 5.14688 13.1987 5.56875C13.1987 5.99063 12.8571 6.33616 12.4353 6.34018C12.4353 6.33616 12.4312 6.33616 12.4312 6.33616ZM16.0714 0H1.92857C0.863839 0 0 0.863839 0 1.92857V16.0714C0 17.1362 0.863839 18 1.92857 18H16.0714C17.1362 18 18 17.1362 18 16.0714V1.92857C18 0.863839 17.1362 0 16.0714 0ZM15.3844 11.6518C15.3321 12.6804 15.0991 13.5924 14.3438 14.3438C13.5884 15.0951 12.6804 15.3321 11.6518 15.3844C10.5911 15.4446 7.40893 15.4446 6.34821 15.3844C5.31964 15.3321 4.40759 15.0991 3.65625 14.3438C2.90491 13.5884 2.66786 12.6804 2.61964 11.6518C2.55937 10.5911 2.55937 7.40893 2.61964 6.34821C2.67187 5.31964 2.90491 4.40759 3.65625 3.65625C4.40759 2.90491 5.32366 2.66786 6.34821 2.61964C7.40893 2.55937 10.5911 2.55937 11.6518 2.61964C12.6804 2.67187 13.5924 2.90893 14.3438 3.65625C15.0951 4.40357 15.3321 5.31964 15.3844 6.34821C15.4446 7.40893 15.4446 10.5911 15.3844 11.6518Z" fill="#A7AABD"/>
</svg>
