<svg width="166" height="50" viewBox="0 0 166 50" fill="none" xmlns="http://www.w3.org/2000/svg">
<g clip-path="url(#clip0_706_56)">
<path d="M30.8767 12.7598L31.5705 11.1432C31.6283 10.97 31.8596 10.8545 32.0331 10.8545C32.2644 10.8545 32.4378 10.97 32.4957 11.1432L33.1895 12.8176L42.2096 33.2564L49.7264 25.7506C50.1311 25.3464 50.1311 24.7691 49.7842 24.3649L25.7306 0.34642C25.5571 0.17321 25.268 0 24.9789 0C24.6898 0 24.4007 0.115473 24.2272 0.288684L0.289279 24.3072C-0.115469 24.7113 -0.115469 25.3464 0.289279 25.7506L17.7513 43.1871L30.8767 12.7598Z" fill="#00AEBC"/>
<path d="M20.7578 46.1894L24.2849 49.7113C24.4584 49.8845 24.7475 50 25.0366 50C25.3257 50 25.557 49.8845 25.7882 49.7113L39.434 36.0855L33.305 21.6513L32.6111 19.9769C32.5533 19.8037 32.322 19.6882 32.1486 19.6882C31.9173 19.6882 31.7438 19.8037 31.686 19.9769L30.9922 21.5935L20.7578 46.1894Z" fill="#005CB9"/>
<path d="M103.673 40.0693H93.1499V13.9145C93.1499 13.5681 92.8608 13.2794 92.5138 13.2794H91.0105C90.6636 13.2794 90.3745 13.5681 90.3745 13.9145V42.1478C90.3745 42.4942 90.6636 42.7829 91.0105 42.7829H103.673C104.02 42.7829 104.309 42.4942 104.309 42.1478V40.7621C104.309 40.3579 104.02 40.0693 103.673 40.0693Z" fill="white"/>
<path d="M136.978 41.7436L124.894 13.6258C124.778 13.3949 124.547 13.2217 124.315 13.2217C124.084 13.2217 123.795 13.3949 123.737 13.6258L111.71 41.8591C111.653 42.0323 111.653 42.2633 111.768 42.4942C111.884 42.6674 112.115 42.7829 112.289 42.7829H113.85C114.139 42.7829 114.37 42.6097 114.428 42.3787L124.315 18.8799L134.434 42.3787C134.55 42.6097 134.781 42.7829 135.012 42.7829H136.458C136.805 42.7829 137.094 42.4942 137.094 42.1478C137.094 41.9746 137.036 41.8591 136.978 41.7436Z" fill="white"/>
<path d="M164.443 13.2794H163.113C162.767 13.2794 162.477 13.5681 162.477 13.9145V35.8545L146.924 13.6258C146.75 13.3949 146.461 13.2794 146.172 13.3949C145.883 13.4526 145.709 13.7413 145.709 14.03V42.1478C145.709 42.4942 145.998 42.7829 146.345 42.7829H147.675C148.022 42.7829 148.311 42.4942 148.311 42.1478V20.2078L163.865 42.4942C163.981 42.6674 164.212 42.7829 164.386 42.7829C164.443 42.7829 164.501 42.7829 164.559 42.7251C164.848 42.6674 165.022 42.3787 165.022 42.09V13.9723C165.079 13.5681 164.79 13.2794 164.443 13.2794Z" fill="white"/>
<path d="M80.1401 21.9399C80.1401 17.1478 75.977 13.2794 71.1779 13.2794H65.4536H64.7019C64.355 13.2794 64.0659 13.5681 64.0659 13.9145V42.1478C64.0659 42.4942 64.355 42.7829 64.7019 42.7829H66.2052C66.5522 42.7829 66.8413 42.4942 66.8413 42.1478V29.6766V16.0508H71.1779C74.5893 16.0508 77.3069 18.5912 77.3069 21.9399C77.3069 25.2887 74.6471 27.7713 71.2935 27.8291H70.5418C70.1949 27.8291 69.9636 28.1178 69.9636 28.4064V30.0231C69.9636 30.3695 70.2527 30.6004 70.5418 30.6004H71.2357H71.4091C76.0927 30.5427 80.1401 26.6743 80.1401 21.9399Z" fill="white"/>
</g>
<defs>
<clipPath id="clip0_706_56">
<rect width="165.079" height="50" fill="white"/>
</clipPath>
</defs>
</svg>
