<svg width="100" height="100" viewBox="0 0 100 100" fill="none" xmlns="http://www.w3.org/2000/svg">
<g clip-path="url(#clip0_722_247)">
<path d="M51.081 21.0665L52.2279 18.3781C52.3602 18.0696 52.669 17.8493 53.0219 17.8493C53.3748 17.8493 53.6836 18.0696 53.8159 18.3781L55.0069 21.1106L69.9165 54.9581L82.2676 42.6179C82.8852 42.0009 82.9293 40.9872 82.3558 40.3261L42.5676 0.617012C42.2588 0.220361 41.8177 0 41.3324 0C40.8472 0 40.4061 0.176289 40.0532 0.528867L0.485508 40.238C-0.176159 40.8991 -0.176159 41.9568 0.485508 42.662L29.3342 71.4852L51.081 21.0665Z" fill="#00AEBC"/>
<path d="M34.2744 76.3772L40.1412 82.2388C40.4941 82.5914 40.8911 82.7236 41.3322 82.7236C41.7733 82.7236 42.2144 82.5473 42.5232 82.2388L65.064 59.7179L54.9184 35.8307L53.7274 33.0982C53.5951 32.7897 53.2863 32.5693 52.9334 32.5693C52.5805 32.5693 52.2718 32.7897 52.1394 33.0982L50.9925 35.7866L34.2744 76.3772Z" fill="#005CB9"/>
<path d="M73.4451 82.5913L69.0781 86.9545L58.1827 76.0686C58.0503 75.9364 57.7857 75.9364 57.6533 76.0686L57.0358 76.6857C56.9034 76.8179 56.9034 77.0823 57.0358 77.2145L68.8135 88.9818C68.9458 89.114 69.2105 89.114 69.3428 88.9818L74.592 83.7372C74.7243 83.605 74.7243 83.3406 74.592 83.2084L74.0186 82.6354C73.8421 82.4591 73.6216 82.4591 73.4451 82.5913Z" fill="#A7AABD"/>
<path d="M88.0459 69.4137L71.2837 62.7588C71.1513 62.7147 70.9749 62.7147 70.8867 62.8469C70.7984 62.9351 70.7543 63.1114 70.7984 63.2436L77.5474 79.991C77.5916 80.1233 77.6798 80.2114 77.8121 80.2114C77.9444 80.2555 78.0768 80.2114 78.165 80.1233L78.8267 79.4622C78.9149 79.374 78.959 79.1977 78.9149 79.0655L73.2245 65.1828L87.2078 70.7359C87.3401 70.7799 87.5166 70.7799 87.6048 70.6477L88.2223 70.0307C88.3547 69.8985 88.3547 69.6341 88.2223 69.5018C88.1782 69.4578 88.09 69.4578 88.0459 69.4137Z" fill="#A7AABD"/>
<path d="M87.6048 46.1436L87.0314 46.7165C86.899 46.8487 86.899 47.1132 87.0314 47.2454L96.1624 56.3683L80.4147 53.5477C80.2383 53.5036 80.1059 53.5918 80.0177 53.724C79.9295 53.8562 79.9736 54.0325 80.1059 54.1647L91.8395 65.8879C91.9718 66.0202 92.2365 66.0202 92.3688 65.8879L92.9423 65.315C93.0746 65.1828 93.0746 64.9184 92.9423 64.7861L83.8113 55.7072L99.5589 58.5279C99.6913 58.5719 99.8236 58.5279 99.9118 58.4397C99.9559 58.3957 99.9559 58.3957 100 58.3516C100.088 58.2194 100.044 58.0431 99.9118 57.9109L88.1783 46.1876C88.0018 46.0113 87.7372 46.0113 87.6048 46.1436Z" fill="#A7AABD"/>
<path d="M56.1094 84.8391C54.1244 82.8559 50.772 82.944 48.787 84.9273L46.405 87.3072L46.0962 87.6157C45.9639 87.7479 45.9639 88.0123 46.0962 88.1445L57.8298 99.8678C57.9621 100 58.2268 100 58.3591 99.8678L58.9767 99.2508C59.109 99.1185 59.109 98.8541 58.9767 98.7219L53.7715 93.5214L48.0812 87.836L49.8898 86.0291C51.3013 84.6188 53.5069 84.5306 54.9184 85.9409C56.33 87.3512 56.2418 89.4667 54.8743 90.9211L54.5655 91.2296C54.4332 91.3618 54.4332 91.5822 54.5655 91.7144L55.2272 92.3755C55.3595 92.5077 55.5801 92.5077 55.7124 92.3755L55.9771 92.111L56.0653 92.0229C58.0062 90.0837 58.0944 86.7783 56.1094 84.8391Z" fill="#A7AABD"/>
</g>
<defs>
<clipPath id="clip0_722_247">
<rect width="100" height="100" fill="white"/>
</clipPath>
</defs>
</svg>
