<svg xmlns="http://www.w3.org/2000/svg" xml:space="preserve" id="Layer_1" x="0" y="0" style="enable-background:new 0 0 331 101" version="1.1" viewBox="0 0 331 101"><style>.st2{fill:#56565a}</style><path d="m62 26 1.4-3.2c.1-.3.6-.6.9-.6.5 0 .8.2.9.6l1.4 3.4 18.1 41L99.8 52c.8-.8.8-2 .1-2.8L51.6 1.1c-.3-.3-.9-.7-1.5-.7s-1.2.2-1.5.6L.6 49.2c-.8.8-.8 2.1 0 2.9l35 35L62 26z" style="fill:#00aebc"/><path d="m41.7 93 7.1 7.1c.3.3.9.6 1.5.6s1-.2 1.5-.6l27.4-27.3-12.4-29-1.4-3.4c-.1-.3-.6-.6-.9-.6-.5 0-.8.2-.9.6l-1.4 3.2L41.7 93z" style="fill:#005cb9"/><path d="M207.9 80.7h-21.1V28.3c0-.7-.6-1.3-1.3-1.3h-3c-.7 0-1.3.6-1.3 1.3v56.6c0 .7.6 1.3 1.3 1.3h25.4c.7 0 1.3-.6 1.3-1.3v-2.8c0-.8-.6-1.4-1.3-1.4zM274.7 84.1l-24.2-56.4c-.2-.5-.7-.8-1.2-.8s-1 .3-1.2.8L224 84.3c-.1.3-.1.8.1 1.3.2.3.7.6 1 .6h3.1c.6 0 1-.3 1.2-.8l19.8-47.1 20.3 47.1c.2.5.7.8 1.2.8h2.9c.7 0 1.3-.6 1.3-1.3.1-.4 0-.6-.2-.8zM329.8 27h-2.7c-.7 0-1.3.6-1.3 1.3v44l-31.2-44.6c-.3-.5-.9-.7-1.5-.5-.6.1-.9.7-.9 1.3v56.4c0 .7.6 1.3 1.3 1.3h2.7c.7 0 1.3-.6 1.3-1.3v-44l31.2 44.7c.2.3.7.6 1 .6.1 0 .2 0 .3-.1.6-.1.9-.7.9-1.3V28.4c.2-.8-.4-1.4-1.1-1.4zM160.8 44.4c0-9.6-8.3-17.4-18-17.4h-13c-.7 0-1.3.6-1.3 1.3v56.6c0 .7.6 1.3 1.3 1.3h3c.7 0 1.3-.6 1.3-1.3V32.6h8.7c6.8 0 12.3 5.1 12.3 11.8 0 6.7-5.3 11.7-12.1 11.8h-1.5c-.7 0-1.2.6-1.2 1.2v3.2c0 .7.6 1.2 1.2 1.2h1.7c9.4-.2 17.6-7.9 17.6-17.4z" class="st2"/></svg>