<?xml version="1.0" encoding="utf-8"?>
<!-- Generator: Adobe Illustrator 24.1.1, SVG Export Plug-In . SVG Version: 6.00 Build 0)  -->
<svg version="1.1" id="Layer_1" xmlns="http://www.w3.org/2000/svg" xmlns:xlink="http://www.w3.org/1999/xlink" x="0px" y="0px"
	 viewBox="0 0 20 17" style="enable-background:new 0 0 20 17;" xml:space="preserve">
<style type="text/css">
	.st0{fill:#FFFFFF;}
</style>
<path class="st0" d="M0,1.4C0,0.6,0.7,0,1.5,0h17.1C19.3,0,20,0.6,20,1.4s-0.6,1.4-1.4,1.4H1.5C0.7,2.8,0,2.2,0,1.4z M0,8.5
	c0-0.8,0.6-1.4,1.4-1.4h17.1c0.8,0,1.4,0.6,1.4,1.4s-0.6,1.4-1.4,1.4h-17C0.7,9.9,0,9.3,0,8.5z M20,15.6c0,0.8-0.6,1.4-1.4,1.4H1.5
	C0.7,17,0,16.4,0,15.6s0.6-1.4,1.4-1.4h17.1C19.3,14.2,20,14.8,20,15.6z"/>
</svg>
