<svg width="20" height="20" viewBox="0 0 20 20" fill="none" xmlns="http://www.w3.org/2000/svg">
<g clip-path="url(#clip0_321_504)">
<path d="M1.25 0C0.558594 0 0 0.558594 0 1.25V7.5C0 8.19141 0.558594 8.75 1.25 8.75C1.94141 8.75 2.5 8.19141 2.5 7.5V4.26953L10.3633 12.1367C10.8516 12.625 11.6445 12.625 12.1328 12.1367C12.6211 11.6484 12.6211 10.8555 12.1328 10.3672L4.26953 2.5H7.5C8.19141 2.5 8.75 1.94141 8.75 1.25C8.75 0.558594 8.19141 0 7.5 0H1.25ZM12.5 1.25C11.8086 1.25 11.25 1.80859 11.25 2.5C11.25 3.19141 11.8086 3.75 12.5 3.75H16.875C17.2188 3.75 17.5 4.03125 17.5 4.375V16.875C17.5 17.2188 17.2188 17.5 16.875 17.5H4.375C4.03125 17.5 3.75 17.2188 3.75 16.875V12.5C3.75 11.8086 3.19141 11.25 2.5 11.25C1.80859 11.25 1.25 11.8086 1.25 12.5V16.875C1.25 18.6016 2.64844 20 4.375 20H16.875C18.6016 20 20 18.6016 20 16.875V4.375C20 2.64844 18.6016 1.25 16.875 1.25H12.5Z" fill="#D7D9E0"/>
</g>
<defs>
<clipPath id="clip0_321_504">
<rect width="20" height="20" fill="white"/>
</clipPath>
</defs>
</svg>
