<?xml version="1.0" encoding="utf-8"?>
<!-- Generator: Adobe Illustrator 24.1.1, SVG Export Plug-In . SVG Version: 6.00 Build 0)  -->
<svg version="1.1" id="Layer_1" xmlns="http://www.w3.org/2000/svg" xmlns:xlink="http://www.w3.org/1999/xlink" x="0px" y="0px"
	 viewBox="0 0 35 35" style="enable-background:new 0 0 35 35;" xml:space="preserve">
<style type="text/css">
	.st0{fill:#FFFFFF;}
</style>
<path class="st0" d="M5.1,5.1C12-1.7,23-1.7,29.9,5.1s6.8,17.9,0,24.7c-5.3,5.3-13.3,6.6-20.1,3.4l-8.5,1.1c-0.3,0-0.6-0.2-0.6-0.5
	c0,0,0-0.1,0-0.1l1.1-8.4C-1.5,18.5-0.2,10.4,5.1,5.1L5.1,5.1z M10.4,30l0.4,0.2c5.6,2.9,12.4,1.9,16.8-2.6c5.6-5.6,5.6-14.7,0-20.3
	C22,1.7,13,1.7,7.4,7.3c-4.5,4.5-5.5,11.3-2.5,16.8L5,24.6l-0.7,5.7c0,0.2,0.1,0.3,0.2,0.3c0,0,0,0,0.1,0L10.4,30L10.4,30z
	 M19.9,19.8l-1.4,1.7c-2.1-1.2-3.9-3-5.1-5.1l1.7-1.4c0.4-0.3,0.5-0.9,0.3-1.4l-1.6-3.5c-0.2-0.5-0.8-0.8-1.3-0.6
	c-1,0.3-2,0.5-3,0.8c-0.6,0.1-0.9,0.7-0.9,1.3c1.1,7.6,7,13.5,14.6,14.6c0.6,0.1,1.1-0.3,1.3-0.9l0.8-3c0.1-0.5-0.1-1.1-0.6-1.3
	l-3.5-1.6C20.8,19.2,20.2,19.4,19.9,19.8L19.9,19.8z"/>
</svg>
