<svg width="18" height="18" viewBox="0 0 18 18" fill="none" xmlns="http://www.w3.org/2000/svg">
<path d="M7.65402 10.9648L11.0973 9.00809L7.65402 7.05139V10.9648Z" fill="#A7AABD"/>
<path d="M16.7143 0H1.2817C0.574554 0 0 0.582589 0 1.29777V16.7022C0 17.4174 0.574554 18 1.2817 18H16.7143C17.4214 18 18 17.4174 18 16.7022V1.29777C18 0.582589 17.4214 0 16.7143 0ZM15.304 12.1942C15.1513 12.7647 14.7094 13.1946 14.1388 13.3473C13.1143 13.6246 9 13.6246 9 13.6246C9 13.6246 4.8817 13.6246 3.86116 13.3513C3.29464 13.1987 2.84866 12.7688 2.69598 12.1982C2.42277 11.1656 2.42277 9.00804 2.42277 9.00804C2.42277 9.00804 2.42277 6.85045 2.69598 5.81786C2.84866 5.24732 3.29062 4.79732 3.86116 4.64464C4.88571 4.36741 9 4.36741 9 4.36741C9 4.36741 13.1183 4.36741 14.1388 4.64464C14.7054 4.79732 15.1513 5.2433 15.304 5.81786C15.5772 6.85045 15.5772 9.00804 15.5772 9.00804C15.5813 9.01205 15.5812 11.1656 15.304 12.1942Z" fill="#A7AABD"/>
</svg>
